<svg viewBox="0 0 70 70" xmlns="http://www.w3.org/2000/svg"><g fill="#9f9fa0" transform="translate(-8 -8)"><path d="m46.08 78h-6.08a4.14 4.14 0 0 1 -4.16-3.77 4.09 4.09 0 0 1 3.06-4.3v-1.71a.83.83 0 0 0 -.67-.8 24.46 24.46 0 0 1 -9.12-3.77.82.82 0 0 0 -1.05.09l-1.21 1.26a4.09 4.09 0 0 1 -3.34 6.17 4.07 4.07 0 0 1 -3.08-1.2l-4.3-4.29a4.17 4.17 0 0 1 -1.24-2.68 4.1 4.1 0 0 1 6.17-3.89l1.2-1.2a.82.82 0 0 0 .09-1 24.46 24.46 0 0 1 -3.77-9.12.83.83 0 0 0 -.8-.67h-1.7a4.1 4.1 0 0 1 -8.08-1.12v-6.08a4 4 0 0 1 1.25-2.92 4.12 4.12 0 0 1 3-1.16 4.17 4.17 0 0 1 3.82 3.08h1.71a.83.83 0 0 0 .81-.67 24.46 24.46 0 0 1 3.77-9.12.82.82 0 0 0 -.09-1.05l-1.2-1.2a4.09 4.09 0 0 1 -5-.63 4.1 4.1 0 0 1 0-5.8l4.35-4.35a4.1 4.1 0 0 1 7 2.9 4.06 4.06 0 0 1 -.57 2.08l1.2 1.2a.82.82 0 0 0 1.05.09 24.46 24.46 0 0 1 9.12-3.77.83.83 0 0 0 .67-.81v-1.7a4.09 4.09 0 0 1 -3.06-4.3 4.14 4.14 0 0 1 4.17-3.79h6a4.14 4.14 0 0 1 4.16 3.77 4.09 4.09 0 0 1 -3.06 4.3v1.7s.34.73.72.81a24.46 24.46 0 0 1 9.12 3.77.82.82 0 0 0 1.06-.09l1.2-1.2a4.1 4.1 0 0 1 6.43-5l4.37 4.37a4.1 4.1 0 0 1 -2.9 7 4.06 4.06 0 0 1 -2.1-.57l-1.2 1.2a.83.83 0 0 0 -.09 1.05 24.46 24.46 0 0 1 3.77 9.12.83.83 0 0 0 .81.67h1.71a4 4 0 0 1 3.59-3 3.89 3.89 0 0 1 3.14 1c.85.77 1.28 3 1.28 3v6.16a4.09 4.09 0 0 1 -8.06 1h-1.73a.83.83 0 0 0 -.8.67 24.46 24.46 0 0 1 -3.77 9.12.82.82 0 0 0 .09 1l1.2 1.2a4.1 4.1 0 0 1 2.7-.52 4 4 0 0 1 1.86.78 4.1 4.1 0 0 1 1.63 3.27 4 4 0 0 1 -1.21 2.9l-4.35 4.35a4.1 4.1 0 0 1 -6-.27 4.14 4.14 0 0 1 -.37-4.7l-1.21-1.21a.82.82 0 0 0 -1-.09 24.46 24.46 0 0 1 -9.12 3.77.83.83 0 0 0 -.67.8v1.71a4.1 4.1 0 0 1 -1 8.07zm-17.44-17.23a3.58 3.58 0 0 1 2 .61 22.07 22.07 0 0 0 8.11 3.36 3.55 3.55 0 0 1 2.88 3.48v3a1.37 1.37 0 0 1 -1.57 1.37 1.38 1.38 0 0 0 -1.26 2.17 1.16 1.16 0 0 0 1 .56h6.4a1.16 1.16 0 0 0 1-.56 1.38 1.38 0 0 0 -1.26-2.17 1.37 1.37 0 0 1 -1.57-1.37v-3a3.55 3.55 0 0 1 2.88-3.48 22 22 0 0 0 8.11-3.36 3.57 3.57 0 0 1 4.51.42l2.05 2.05a1.41 1.41 0 0 1 -.07 2.07 1.42 1.42 0 0 0 -.23 2 1.36 1.36 0 0 0 1 .49 1.32 1.32 0 0 0 1-.4l4.38-4.37a1.35 1.35 0 0 0 .4-1 1.4 1.4 0 0 0 -1.13-1.36 1.19 1.19 0 0 0 -1.13.32l-.28.28a1.4 1.4 0 0 1 -2 0l-2.05-2a3.58 3.58 0 0 1 -.42-4.51 22 22 0 0 0 3.36-8.11 3.56 3.56 0 0 1 3.49-2.88h2.89a1.41 1.41 0 0 1 1.42 1.51 1.41 1.41 0 0 0 1.23 1.56 1.38 1.38 0 0 0 1.36-.76 1.23 1.23 0 0 0 .14-.57v-6.23a1.21 1.21 0 0 0 -.13-.56 1.39 1.39 0 0 0 -1.37-.77 1.41 1.41 0 0 0 -1.23 1.56 1.41 1.41 0 0 1 -1.42 1.51h-2.9a3.56 3.56 0 0 1 -3.49-2.88 22 22 0 0 0 -3.36-8.11 3.58 3.58 0 0 1 .42-4.51l1.84-1.84a1.71 1.71 0 0 1 2.45 0 1.22 1.22 0 0 0 1.15.37 1.39 1.39 0 0 0 .76-2.3l-4.36-4.36a1.39 1.39 0 0 0 -2.34.75 1.22 1.22 0 0 0 .37 1.15 1.71 1.71 0 0 1 0 2.45l-1.8 1.85a3.58 3.58 0 0 1 -4.51.42 22 22 0 0 0 -8.11-3.36 3.56 3.56 0 0 1 -2.88-3.49v-2.94a1.37 1.37 0 0 1 1.57-1.37 1.38 1.38 0 0 0 1.26-2.17 1.16 1.16 0 0 0 -1-.56h-6.4a1.16 1.16 0 0 0 -1 .56 1.38 1.38 0 0 0 1.26 2.17 1.37 1.37 0 0 1 1.57 1.37v2.94a3.56 3.56 0 0 1 -2.88 3.49 22 22 0 0 0 -8.11 3.36 3.58 3.58 0 0 1 -4.51-.42l-1.84-1.84a1.76 1.76 0 0 1 -.3-2 1.23 1.23 0 0 1 .26-.34 1.37 1.37 0 1 0 -1.89-2l-4.43 4.42a1.23 1.23 0 0 0 -.32 1.14 1.4 1.4 0 0 0 1.9 1 1.07 1.07 0 0 0 .41-.28 1.72 1.72 0 0 1 2.44 0l1.84 1.84a3.58 3.58 0 0 1 .42 4.51 22 22 0 0 0 -3.36 8.11 3.56 3.56 0 0 1 -3.49 2.88h-2.93a1.39 1.39 0 0 1 -1.38-1.52 1.41 1.41 0 0 0 -1.31-1.55 1.37 1.37 0 0 0 -1.3.8 1.24 1.24 0 0 0 -.12.53v6.1a1.38 1.38 0 0 0 2.64.61 1.29 1.29 0 0 0 .1-.51 1.7 1.7 0 0 1 1.71-1.74h2.59a3.56 3.56 0 0 1 3.49 2.88 22.07 22.07 0 0 0 3.36 8.11 3.58 3.58 0 0 1 -.42 4.51l-1.88 1.88a1.65 1.65 0 0 1 -2.33 0l-.07-.07a1.34 1.34 0 0 0 -.45-.29 1.37 1.37 0 0 0 -1.46.32 1.33 1.33 0 0 0 -.4 1 1.35 1.35 0 0 0 .4 1l4.35 4.3a1.37 1.37 0 0 0 2-.09 1.42 1.42 0 0 0 -.23-2 1.41 1.41 0 0 1 -.07-2.07l2.05-2.05a3.54 3.54 0 0 1 2.51-1z"/><path d="m37.77 37.24a5.74 5.74 0 1 1 5.74-5.74 5.74 5.74 0 0 1 -5.74 5.74zm0-8.75a3 3 0 1 0 3 3 3 3 0 0 0 -3-3z"/><path d="m33.89 56.65a5 5 0 1 1 5-5 5 5 0 0 1 -5 5zm0-7.21a2.24 2.24 0 1 0 2.23 2.24 2.24 2.24 0 0 0 -2.23-2.24z"/><path d="m52.6 55.28a8.44 8.44 0 0 1 -8.39-7.45 1.37 1.37 0 1 1 2.72-.32 5.71 5.71 0 1 0 6.3-6.34 1.37 1.37 0 0 1 .3-2.72 8.44 8.44 0 0 1 -.93 16.83z"/><path d="m50.84 32.87a1.37 1.37 0 0 1 0-2.74 1.4 1.4 0 0 1 1 .4 1.38 1.38 0 0 1 0 1.94 1.4 1.4 0 0 1 -1 .4z"/><path d="m43.05 60.64a1.37 1.37 0 1 1 1-.4 1.41 1.41 0 0 1 -1 .4z"/><path d="m27.69 44.38a1.37 1.37 0 0 1 -1.36-1.38 1.37 1.37 0 0 1 1.36-1.37 1.4 1.4 0 0 1 1 .4 1.41 1.41 0 0 1 .4 1 1.37 1.37 0 0 1 -.4 1 1.35 1.35 0 0 1 -1 .35z"/><path d="m47.58 43.22a1.37 1.37 0 0 1 -1-.4 1.4 1.4 0 0 1 -.4-1 1.37 1.37 0 0 1 2.74 0 1.4 1.4 0 0 1 -.4 1 1.37 1.37 0 0 1 -.94.4z"/></g></svg>