<svg id="圖層_1" data-name="圖層 1" xmlns="http://www.w3.org/2000/svg" viewBox="0 0 65.64 60.09"><defs><style>.cls-1{fill:none;stroke:#9f9fa0;stroke-miterlimit:10;stroke-width:2px;}</style></defs><title>飲食</title><path class="cls-1" d="M35.33,47.35l-14.25,15s-2,3.21,0,5.35,3,1.07,6-1.07S41,54,41,54Z" transform="translate(-7.49 -10.97)"/><path class="cls-1" d="M14,30.24s-9-16-4-18.17S44.22,45.21,44.22,45.21l16.1,18.17s2,3.21,0,5.35-4,2.13-9.06-3.21S31.14,42,30.13,42s-3,5.35-5,3.21S15,32.38,14,30.24Z" transform="translate(-7.49 -10.97)"/><path class="cls-1" d="M41.61,42.11l4.07-4.53a9.07,9.07,0,0,0,2.32-6V28c0-4,13-15,14-14s-9,13-7,14S66,15,67,17s-9,13-7,14S71,18,72,20s-4,14-9,16-6,2-9,5l-7,7Z" transform="translate(-7.49 -10.97)"/></svg>