<svg viewBox="0 0 65.64 60.09" xmlns="http://www.w3.org/2000/svg"><g fill="none" stroke="#9f9fa0" stroke-miterlimit="10" stroke-width="2" transform="translate(-7.49 -10.97)"><path d="m35.33 47.35-14.25 15s-2 3.21 0 5.35 3 1.07 6-1.07 13.92-12.63 13.92-12.63z"/><path d="m14 30.24s-9-16-4-18.17 34.22 33.14 34.22 33.14l16.1 18.17s2 3.21 0 5.35-4 2.13-9.06-3.21-20.12-23.52-21.13-23.52-3 5.35-5 3.21-10.13-12.83-11.13-14.97z"/><path d="m41.61 42.11 4.07-4.53a9.07 9.07 0 0 0 2.32-6v-3.58c0-4 13-15 14-14s-9 13-7 14 11-13 12-11-9 13-7 14 11-13 12-11-4 14-9 16-6 2-9 5l-7 7z"/></g></svg>