<svg viewBox="0 0 59.97 59.65" xmlns="http://www.w3.org/2000/svg"><g fill="none" stroke="#9f9fa0" stroke-miterlimit="10" stroke-width="2"><circle cx="9.17" cy="9.17" r="8.17"/><path d="m26.62 35.29v5.94h-9.62s-2.23 1.48-2.23 3.71.74 3 3 3.71 14.11 0 14.11 0a6.49 6.49 0 0 0 1.42-4.45s4.46 3.71 4.46 4.45-5.94 5.2-5.94 5.94-2.23 3 0 5.94 10.39 10.4 10.39 10.4 2.23 1.48 5.2-.74 0-5.94 0-5.94l-6.68-7.43 6.68-6.68 17.82 17.86s2.23 1.48 5.2-.74.74-5.2.74-5.2l-30.44-29.74 3.71-3.71 8.91 9.65s3 1.49 5.2-.74a3.53 3.53 0 0 0 .74-4.46l-12.62-12.62s-3.67-1.44-5.94 0-14.11 14.85-14.11 14.85z" transform="translate(-13 -12.76)"/></g></svg>