<svg id="圖層_1" data-name="圖層 1" xmlns="http://www.w3.org/2000/svg" viewBox="0 0 59.97 59.65"><defs><style>.cls-1{fill:none;stroke:#9f9fa0;stroke-miterlimit:10;stroke-width:2px;}</style></defs><title>運動</title><circle class="cls-1" cx="9.17" cy="9.17" r="8.17"/><path class="cls-1" d="M26.62,35.29v5.94H17s-2.23,1.48-2.23,3.71.74,3,3,3.71,14.11,0,14.11,0A6.49,6.49,0,0,0,33.3,44.2s4.46,3.71,4.46,4.45-5.94,5.2-5.94,5.94-2.23,3,0,5.94,10.39,10.4,10.39,10.4,2.23,1.48,5.2-.74,0-5.94,0-5.94l-6.68-7.43,6.68-6.68L65.23,68s2.23,1.48,5.2-.74.74-5.2.74-5.2L40.73,32.32l3.71-3.71,8.91,9.65s3,1.49,5.2-.74a3.53,3.53,0,0,0,.74-4.46L46.67,20.44S43,19,40.73,20.44,26.62,35.29,26.62,35.29Z" transform="translate(-13 -12.76)"/></svg>