<svg enable-background="new 0 0 512 512" viewBox="0 0 512 512" xmlns="http://www.w3.org/2000/svg"><g transform="translate(1 1)"><path d="m255 101.4c-103.253 0-187.733 84.48-187.733 187.733 0 50.764 20.43 96.981 53.462 130.861.328.492.71.963 1.152 1.405.484.484.97.891 1.473 1.238 33.949 33.484 80.49 54.229 131.647 54.229 103.253 0 187.733-84.48 187.733-187.733s-84.481-187.733-187.734-187.733zm145.067 196.267h25.385c-2.023 40.571-18.386 77.528-44.093 105.879l-17.985-17.985c-3.413-3.413-8.533-3.413-11.947 0-3.413 3.413-3.413 8.533 0 11.947l17.985 17.985c-28.35 25.707-65.308 42.07-105.879 44.093v-25.386c0-5.12-3.413-8.533-8.533-8.533s-8.533 3.413-8.533 8.533v25.385c-40.784-2.034-77.916-18.559-106.325-44.5l17.578-17.578c3.413-3.413 3.413-8.533 0-11.947-3.413-3.413-8.533-3.413-11.947 0l-17.533 17.534c-25.474-28.291-41.679-65.07-43.692-105.427h25.385c4.267 0 8.533-3.413 8.533-8.533s-3.413-8.533-8.533-8.533h-25.385c2.023-40.571 18.386-77.528 44.093-105.879l17.985 17.985c1.707 1.707 3.413 2.56 5.973 2.56 1.707 0 4.267-.853 5.973-2.56 3.413-3.413 3.413-8.533 0-11.947l-17.985-17.985c28.35-25.707 65.308-42.07 105.879-44.093v25.385c0 5.12 3.413 8.533 8.533 8.533 4.267 0 8.533-3.413 8.533-8.533v-25.385c40.571 2.023 77.528 18.386 105.879 44.093l-17.985 17.985c-3.413 3.413-3.413 8.533 0 11.947 1.707 1.707 3.413 2.56 5.973 2.56s4.267-.853 5.973-2.56l17.985-17.985c25.707 28.35 42.07 65.308 44.093 105.879h-25.385c-5.12 0-8.533 3.413-8.533 8.533s3.415 8.533 8.535 8.533z"/><path d="m468.333 153.453c6.827 0 13.653-2.56 18.773-7.68 10.24-10.24 10.24-27.307 0-37.547l-34.133-34.133c-10.24-10.24-27.307-10.24-37.547 0-8.316 8.316-9.878 21.133-4.688 31.141l-13.759 13.759c-30.247-25.306-67.268-42.746-107.847-49.081v-19.712h16.213c10.24 0 17.92-7.68 17.92-17.067v-16.213c0-10.24-7.68-17.92-17.92-17.92h-101.545c-9.387 0-17.067 7.68-17.067 17.92v15.36c0 10.24 7.68 17.92 17.067 17.92h17.067v19.712c-40.371 6.302-77.223 23.593-107.384 48.69l-13.941-13.941c4.842-9.92 3.191-22.409-4.968-30.568-10.24-10.24-27.307-10.24-37.547 0l-34.133 34.133c-10.24 10.24-10.24 27.307 0 37.547 5.12 5.12 11.947 7.68 18.773 7.68 6.06 0 12.117-2.022 16.983-6.057l14.723 14.723c-25.327 36.043-40.24 79.869-40.24 127.013 0 122.028 99.84 221.868 221.867 221.868s221.867-99.84 221.867-221.867c0-46.926-14.777-90.562-39.89-126.51l14.846-14.846c4.782 3.781 10.645 5.676 16.51 5.676zm-40.96-67.413c1.707-1.707 4.267-2.56 6.827-2.56s5.12.853 6.827 2.56l34.133 34.133c3.413 4.267 4.267 10.24 0 13.653s-10.24 3.413-13.653 0l-1.543-1.543c-.426-.975-1.047-1.9-1.871-2.724l-29.867-29.867c-.559-.559-1.168-1.018-1.804-1.394-2.416-4.096-2.105-9.202.951-12.258zm-5.973 31.573 17.92 17.92-12.8 12.8c-5.12-6.827-11.093-12.8-17.067-18.773zm-217.6-101.546 102.4.853v15.36c0 .853 0 .853-.853.853l-101.547-.853zm34.133 34.133h34.133v17.722c-5.634-.434-11.326-.656-17.067-.656s-11.432.222-17.067.656v-17.722zm-149.333 67.413 11.947 11.947c-5.973 5.973-11.947 11.947-17.067 18.773l-12.8-12.8zm-53.76 16.214c-3.413-4.267-3.413-10.24 0-13.653l34.133-34.134c1.707-1.707 4.267-2.56 6.827-2.56s5.12.853 6.827 2.56c3.413 4.267 3.413 10.24 0 13.653l-29.867 29.867-4.267 4.267c-3.413 3.413-10.24 3.413-13.653 0zm220.16 360.106c-112.64 0-204.8-92.16-204.8-204.8 0-45.669 15.152-87.969 40.673-122.128.38-.248.76-.499 1.14-.752 7.68-11.093 17.067-20.48 27.307-29.867.348-.348.651-.737.928-1.142 29.931-26.26 67.508-43.989 108.838-49.267.387.037.777.062 1.167.062 17.067-1.707 32.427-1.707 49.493 0h.853c.171 0 .356-.015.542-.032 100.415 12.94 178.659 99.339 178.659 203.126 0 112.64-92.16 204.8-204.8 204.8z"/><path d="m263.533 256.088v-77.888c0-5.12-3.413-8.533-8.533-8.533s-8.533 3.413-8.533 8.533v77.888c-14.679 3.814-25.6 17.216-25.6 33.046 0 18.773 15.36 34.133 34.133 34.133s34.133-15.36 34.133-34.133c0-15.83-10.921-29.232-25.6-33.046zm-8.533 50.112c-9.387 0-17.067-7.68-17.067-17.067s7.68-17.067 17.067-17.067 17.067 7.68 17.067 17.067-7.68 17.067-17.067 17.067z"/></g></svg>